<?xml version="1.0" encoding="UTF-8"?>
<svg id="Layer_1" xmlns="http://www.w3.org/2000/svg" version="1.1" viewBox="0 0 942.3 942.3">
  <!-- Generator: Adobe Illustrator 30.3.0, SVG Export Plug-In . SVG Version: 2.1.3 Build 182)  -->
  <path d="M148.2,438c-15.2,4-25.4,1.8-32.7-10.6l-19.2-32.8-20.6,10.3-.3,24.5c14.8,5.6,4.4,19.2,7.8,43.4s3.8,34.1,4.3,52l3.4,104.3c-10.5,7.4-23.9,7.4-34.5.3l2.8-89.6c.7-22.8,2.1-44.5,5-67s.9-16.7-.3-24.7-.6-14.3,6.5-18.7v-21.5c-.1,0-65.7,33.3-65.7,33.3-1.1.6-4.8.5-4.8-.6v-4.9c.1,0,28.3-46.1,28.3-46.1l80.9-129.7c2.9-4.7,6-6.2,10.7-8.8l180-96.6c1.4-.7,4.3-1,5,0s.8,3,.8,4.6l-23.7,41.3-25.7,44.4,28.8,23.1,8,7.4h541.9c12.5.1,23.3,11.1,23.3,23.6v387.6c0,5.5-1.3,9.8-3.5,14.5,4.5,1.9,8.9,4.2,12.8,7.3l37.4,29.6,33.2,26.8c3.6,2.9,4.6,7.7,3.7,12.2s-4.8,7.4-9.5,8l-29.4,3.7H102.7c-11.2,0-21.8-2.5-31.9-5.2s-6.1-6-6.1-9.1,1.4-7.7,4.9-10.5l72.1-57.7c3.1-2.5,6.8-3.7,10.5-4.7-2.9-5.3-4-11.1-4-17.9v-245.4ZM153.1,437v246.3c0,6.3,1,11.5,4,16.9h692.4c2.5-4.4,4-8.5,4-13.9l-.2-386.4c0-10.8-9.3-20-19.4-20H296.2c.5,7.6-.9,15.1-3.8,22.9l529.9.2v365.2s-638.9.1-638.9.1l-.2-59.9v-142.8s-.1-41.6-.1-41.6l-29.9,12.9ZM185.5,467.2v141.3s.2,42.4.2,42.4v14.8c.1,0,633.8,0,633.8,0v-359.7s-527.8,0-527.8,0l-30.8,62.2-12.1,28.1-24.7,9.5-38.4,17v10.1c0,0-.1,34.7-.1,34.7ZM78.3,447.2c.6-2.4.9-5.6.8-7.2-.2-3.9-3.4-7.1-7.5-6l-.6,12.8c1.7.7,6,1.2,7.3.4ZM69.5,452l-.2,15.2h8.6c0,.1.2-15,.2-15h-8.6ZM572.3,773.8c3,1.3,5.2,2.1,8.3,2.1l331.5-.2c9.4,0,17.1-.7,25.9-4l-24.7-21-54.6-43.3c-6.7-1.6-13.2-2.4-20.6-2.4H168c-7.2,0-14.7.8-21,3.3l-70,56c-3,2.4-4.8,4.2-7.6,8.1,10.5,2.9,19.3,3.5,30.2,3.5h326.5c3.5.1,5.7-.5,8.5-1.9h137.7ZM576.1,783.5h326c0,0,29.5-3.6,29.5-3.6,2.3-.3,5.3-3,5.6-4.8l-6.7,1.8-32.5,1.6h-321.1c-.7,2.2-1.1,3.9-.9,5.1ZM431,783.5c.4-1.7-.9-5.1-2-5.1H105.5c-12.8,0-23.8-.9-35.5-2.5,1.3,1.7,3.7,3.7,5,3.9,9.8,1,18.3,3.6,28.4,3.6h327.5ZM570,783.4c3,0,4.6-6.8,2.3-6.9h-138.6c-.4,2.2.3,4.8,1.4,5.8s3.4,1.1,5.2,1.1h129.7Z"/>
  <polygon points="185.5 467.2 185.7 432.6 185.7 422.5 224 405.5 248.8 396 260.9 368 291.7 305.8 819.4 305.9 819.5 665.6 185.8 665.6 185.7 650.9 185.5 608.5 185.5 467.2" fill="#1f2937"/>
  <path d="M153.1,437l29.9-12.9v41.6c.1,0,.1,142.8.1,142.8l.2,59.9h638.9c0-.1,0-365.4,0-365.4l-529.9-.2c2.9-7.8,4.3-15.3,3.8-22.9h537.7c10.2,0,19.4,9.2,19.4,20l.2,386.4c0,5.3-1.5,9.4-4,13.8H157.1c-3-5.3-3.9-10.5-3.9-16.8v-246.3ZM507.7,292.9c0-2.4-1.9-4.3-4.3-4.3s-4.3,1.9-4.3,4.3,1.9,4.3,4.3,4.3,4.3-1.9,4.3-4.3Z" fill="#fff"/>
  <path d="M572.3,773.8h-137.7c-2.9,1.4-5,2-8.5,2H99.5c-10.9-.1-19.7-.7-30.2-3.6,2.8-3.9,4.6-5.7,7.6-8.1l70-56c6.3-2.5,13.8-3.2,21-3.2h670.1c7.3,0,13.9.9,20.6,2.4l54.6,43.3,24.7,21c-8.8,3.3-16.5,4-25.9,4l-331.5.2c-3.1,0-5.3-.8-8.3-2.1ZM853.1,742.7c1.8,0,3.5-1,3.4-1.7l-.4-3-29.7-26.6c-1.2-.8-3.7-2.5-5.5-2.5H186.8c-2.1,0-4.6,1.3-6,2.1l-29.3,26.8-1.1,3c-.3.7,2.1,1.8,3.3,1.8h699.5ZM573.7,770.8l63.1.4c1.7.2,6.7-2.6,5.9-4.3l-9-18.8c-1.9-1.3-5.7-2.3-8.6-2.3h-244.5c-2.4,0-7,1.4-7.9,3.2l-8.8,18.4c1.1,1.7,4.3,3.7,6.1,3.7l66.4-.2h137.3Z" fill="#fff"/>
  <path d="M576.1,783.5c-.2-1.2.2-2.9.9-5.1h321.1s32.5-1.6,32.5-1.6l6.7-1.8c-.4,1.8-3.3,4.5-5.6,4.8l-29.5,3.6h-326Z" fill="#fff"/>
  <path d="M431,783.5H103.5c-10.1,0-18.6-2.6-28.4-3.7s-3.7-2.2-5-3.9c11.6,1.6,22.7,2.5,35.5,2.5h323.5c1.1,0,2.4,3.3,2,5Z" fill="#fff"/>
  <path d="M570,783.4h-129.7c-1.8,0-4.3-.3-5.2-1.1s-1.9-3.6-1.4-5.9h138.6c2.3.2.7,7-2.3,7Z" fill="#fff"/>
  <rect x="66.1" y="455.3" width="15.2" height="8.6" transform="translate(-387 526.1) rotate(-89.1)" fill="#fff"/>
  <path d="M78.3,447.2c-1.3.8-5.5.3-7.3-.4l.6-12.8c4.1-1.1,7.3,2.1,7.5,6s-.2,4.8-.8,7.2Z" fill="#fff"/>
  <circle cx="503.4" cy="292.9" r="4.3"/>
  <path d="M853.1,742.7H153.6c-1.1,0-3.5-1-3.3-1.8l1.1-3,29.3-26.8c1.4-.9,3.9-2.1,6-2.1h634.1c1.8,0,4.4,1.7,5.5,2.5l29.7,26.6.4,3c0,.6-1.6,1.7-3.4,1.7Z"/>
  <path d="M573.7,770.8h-137.3c0,.1-66.4.4-66.4.4-1.8,0-5-2-6.1-3.7l8.8-18.4c.8-1.8,5.5-3.2,7.9-3.2h244.5c2.9,0,6.7,1.1,8.6,2.4l9,18.8c.8,1.7-4.2,4.5-5.9,4.3l-63.1-.4ZM636.7,768.8c.8,0,3.2-1.2,2.9-1.8l-.8-2-5.7-12.4c-1.3-2.8-3.4-4.2-7.1-4.2h-250c-4,7.2-6.7,12.6-9,20.1l71.3.2h133.8s64.5,0,64.5,0Z"/>
</svg>